<svg width="100" height="100" viewBox="0 0 100 100" fill="none" xmlns="http://www.w3.org/2000/svg">
<path d="M35.4166 37.5001C38.6111 37.5001 41.8583 37.9001 45.1583 38.7001C48.4583 39.5001 51.5139 40.732 54.325 42.3959C57.1361 44.0598 59.5486 46.1432 61.5625 48.6459C63.5764 51.1487 64.9305 54.1001 65.625 57.5001C65.9028 58.8195 65.625 59.982 64.7916 60.9876C63.9583 61.9932 62.8819 62.4973 61.5625 62.5001H9.27081C7.95136 62.5001 6.87497 61.9959 6.04164 60.9876C5.20831 59.9793 4.93053 58.8168 5.20831 57.5001C5.90275 54.0973 7.27497 51.1459 9.32497 48.6459C11.375 46.1459 13.8055 44.0626 16.6166 42.3959C19.4277 40.7293 22.4653 39.4959 25.7291 38.6959C28.993 37.8959 32.2222 37.4973 35.4166 37.5001ZM8.33331 79.1668C7.15275 79.1668 6.16386 78.7668 5.36664 77.9668C4.56942 77.1668 4.16942 76.1779 4.16664 75.0001C4.16386 73.8223 4.56386 72.8334 5.36664 72.0334C6.16942 71.2334 7.15831 70.8334 8.33331 70.8334H62.5C63.6805 70.8334 64.6708 71.2334 65.4708 72.0334C66.2708 72.8334 66.6694 73.8223 66.6666 75.0001C66.6639 76.1779 66.2639 77.1682 65.4666 77.9709C64.6694 78.7737 63.6805 79.1723 62.5 79.1668H8.33331ZM8.33331 95.8334C7.15275 95.8334 6.16386 95.4334 5.36664 94.6334C4.56942 93.8334 4.16942 92.8446 4.16664 91.6668C4.16386 90.489 4.56386 89.5001 5.36664 88.7001C6.16942 87.9001 7.15831 87.5001 8.33331 87.5001H62.5C63.6805 87.5001 64.6708 87.9001 65.4708 88.7001C66.2708 89.5001 66.6694 90.489 66.6666 91.6668C66.6639 92.8446 66.2639 93.8348 65.4666 94.6376C64.6694 95.4404 63.6805 95.839 62.5 95.8334H8.33331ZM84.5833 95.8334H79.1666C77.9861 95.8334 76.9972 95.4334 76.2 94.6334C75.4027 93.8334 75.0027 92.8446 75 91.6668V62.5001C75 55.0001 72.5514 48.4557 67.6541 42.8668C62.7569 37.2779 56.6986 33.3709 49.4791 31.1459C48.7153 30.9376 48.0903 30.539 47.6041 29.9501C47.118 29.3612 46.8055 28.6834 46.6666 27.9168L46.3541 25.5209C46.2153 24.2709 46.5625 23.1779 47.3958 22.2418C48.2291 21.3057 49.2708 20.8362 50.5208 20.8334H66.6666V8.33343C66.6666 7.15287 67.0666 6.16398 67.8666 5.36676C68.6666 4.56954 69.6555 4.16954 70.8333 4.16676C72.0111 4.16398 73.0014 4.56398 73.8041 5.36676C74.6069 6.16954 75.0055 7.15843 75 8.33343V20.8334H91.25C92.5 20.8334 93.5416 21.2848 94.375 22.1876C95.2083 23.0904 95.5555 24.1668 95.4166 25.4168L88.75 92.0834C88.6111 93.1251 88.1597 94.0112 87.3958 94.7418C86.6319 95.4723 85.6944 95.8362 84.5833 95.8334Z" fill="white"/>
</svg>
